<svg xmlns="http://www.w3.org/2000/svg" viewBox="0 0 180 40" fill="none">
  <defs>
    <linearGradient id="brandGrad" x1="0%" y1="0%" x2="100%" y2="100%">
      <stop offset="0%" stop-color="#60A5FA"/>
      <stop offset="50%" stop-color="#22D3EE"/>
      <stop offset="100%" stop-color="#4ADE80"/>
    </linearGradient>
    <linearGradient id="iconGrad" x1="0%" y1="0%" x2="100%" y2="100%">
      <stop offset="0%" stop-color="#60A5FA"/>
      <stop offset="100%" stop-color="#4ADE80"/>
    </linearGradient>
    <filter id="glow">
      <feGaussianBlur stdDeviation="1" result="blur"/>
      <feComposite in="SourceGraphic" in2="blur" operator="over"/>
    </filter>
  </defs>
  <g transform="translate(2,3)" filter="url(#glow)">
    <!-- Speech bubble -->
    <path d="M1.5 6.5C1.5 3.462 3.962 1 7 1H25C28.038 1 30.5 3.462 30.5 6.5V21.5C30.5 24.538 28.038 27 25 27H19L16 32L13 27H7C3.962 27 1.5 24.538 1.5 21.5V6.5Z" fill="url(#iconGrad)" opacity="0.2"/>
    <path d="M1.5 6.5C1.5 3.462 3.962 1 7 1H25C28.038 1 30.5 3.462 30.5 6.5V21.5C30.5 24.538 28.038 27 25 27H19L16 32L13 27H7C3.962 27 1.5 24.538 1.5 21.5V6.5Z" stroke="url(#iconGrad)" stroke-width="1.5" fill="none"/>
    <!-- Microphone -->
    <rect x="13" y="6" width="6" height="10" rx="3" fill="url(#iconGrad)"/>
    <path d="M10.5 14C10.5 17.314 12.962 19.5 16 19.5C19.038 19.5 21.5 17.314 21.5 14" stroke="url(#iconGrad)" stroke-width="1.5" stroke-linecap="round" fill="none"/>
    <line x1="16" y1="19.5" x2="16" y2="22" stroke="url(#iconGrad)" stroke-width="1.5" stroke-linecap="round"/>
    <!-- Checkmark -->
    <circle cx="26" cy="6" r="4" fill="#4ADE80"/>
    <path d="M24 6L25.2 7.2L28 4.5" stroke="white" stroke-width="1.2" stroke-linecap="round" stroke-linejoin="round"/>
  </g>
  <!-- Text -->
  <text x="40" y="22" font-family="system-ui, -apple-system, sans-serif" font-weight="700" font-size="17" fill="white">
    <tspan>Cert</tspan><tspan fill="url(#brandGrad)">Mate</tspan>
  </text>
</svg>
